<svg width="46" height="47" viewBox="0 0 46 47" fill="none" xmlns="http://www.w3.org/2000/svg">
<circle cx="23" cy="23.5" r="23" fill="white"/>
<g clip-path="url(#clip0_47_305)">
<path d="M34.6383 26.4029C33.0356 32.8315 26.5244 36.7438 20.095 35.1407C13.6683 33.538 9.75599 27.0265 11.3594 20.5984C12.9614 14.169 19.4725 10.2564 25.8999 11.8591C32.3289 13.4618 36.241 19.974 34.6381 26.403L34.6382 26.4029H34.6383Z" fill="#F7931A"/>
<path d="M28.2901 21.7903C28.5289 20.1933 27.3131 19.3349 25.6506 18.7623L26.1899 16.5991L24.8731 16.271L24.3481 18.3772C24.0019 18.2909 23.6464 18.2095 23.2931 18.1289L23.8219 16.0087L22.5059 15.6806L21.9663 17.8431C21.6798 17.7779 21.3985 17.7134 21.1255 17.6455L21.127 17.6387L19.3111 17.1852L18.9608 18.5917C18.9608 18.5917 19.9378 18.8156 19.9172 18.8294C20.4504 18.9625 20.5469 19.3155 20.5308 19.5952L19.9165 22.0596C19.9532 22.069 20.0008 22.0824 20.0534 22.1036C20.0095 22.0927 19.9627 22.0807 19.9142 22.0691L19.0531 25.5214C18.9879 25.6834 18.8225 25.9265 18.4497 25.8342C18.4629 25.8533 17.4926 25.5953 17.4926 25.5953L16.8389 27.1027L18.5525 27.5298C18.8713 27.6098 19.1837 27.6934 19.4913 27.7721L18.9464 29.9601L20.2617 30.2882L20.8013 28.1234C21.1606 28.221 21.5093 28.311 21.8507 28.3958L21.3129 30.5503L22.6297 30.8785L23.1746 28.6946C25.42 29.1195 27.1084 28.9482 27.8191 26.9172C28.3917 25.282 27.7906 24.3388 26.6092 23.7238C27.4697 23.5254 28.1177 22.9595 28.2905 21.7905L28.2901 21.7902L28.2901 21.7903ZM25.2815 26.0091C24.8745 27.6443 22.1214 26.7604 21.2288 26.5387L21.9519 23.64C22.8444 23.8628 25.7068 24.3038 25.2815 26.0091H25.2815ZM25.6887 21.7666C25.3175 23.254 23.026 22.4983 22.2827 22.313L22.9383 19.684C23.6816 19.8693 26.0754 20.2152 25.6888 21.7666H25.6887Z" fill="white"/>
</g>
<defs>
<clipPath id="clip0_47_305">
<rect width="23.9973" height="24" fill="white" transform="translate(11 11.5)"/>
</clipPath>
</defs>
</svg>
