<svg width="46" height="47" viewBox="0 0 46 47" fill="none" xmlns="http://www.w3.org/2000/svg">
<circle cx="23" cy="23.5" r="23" fill="white"/>
<g clip-path="url(#clip0_47_226)">
<path d="M23 34.2012C28.9102 34.2012 33.7012 29.4101 33.7012 23.5C33.7012 17.5899 28.9102 12.7988 23 12.7988C17.0899 12.7988 12.2988 17.5899 12.2988 23.5C12.2988 29.4101 17.0899 34.2012 23 34.2012Z" fill="white"/>
<path d="M23 11.5C20.6266 11.5 18.3066 12.2038 16.3332 13.5224C14.3598 14.8409 12.8217 16.7151 11.9135 18.9078C11.0052 21.1005 10.7676 23.5133 11.2306 25.8411C11.6936 28.1689 12.8365 30.3071 14.5147 31.9853C16.193 33.6635 18.3312 34.8064 20.6589 35.2694C22.9867 35.7324 25.3995 35.4948 27.5922 34.5866C29.7849 33.6783 31.6591 32.1402 32.9776 30.1668C34.2962 28.1935 35 25.8734 35 23.5C35.0046 21.9287 34.6996 20.3719 34.1026 18.9185C33.5055 17.465 32.628 16.1435 31.5202 15.0291C30.4123 13.9148 29.0959 13.0297 27.646 12.4241C26.196 11.8186 24.641 11.5046 23.0697 11.5H23ZM23.2034 23.9068L21.954 28.1199H28.6368C28.6811 28.1183 28.7252 28.1255 28.7667 28.141C28.8082 28.1565 28.8462 28.1801 28.8786 28.2103C28.911 28.2405 28.9371 28.2768 28.9554 28.3171C28.9738 28.3575 28.984 28.401 28.9855 28.4453V28.5557L28.4044 30.5605C28.3787 30.6553 28.3216 30.7386 28.2424 30.7967C28.1632 30.8548 28.0667 30.8842 27.9685 30.8801H17.7409L19.4552 25.04L17.5375 25.6211L17.9734 24.2845L19.891 23.7034L22.3027 15.5097C22.3292 15.4154 22.3865 15.3327 22.4655 15.2748C22.5445 15.2169 22.6406 15.1871 22.7385 15.1901H25.3245C25.3687 15.1885 25.4129 15.1957 25.4544 15.2112C25.4958 15.2267 25.5339 15.2503 25.5662 15.2805C25.5986 15.3107 25.6247 15.347 25.6431 15.3874C25.6614 15.4277 25.6716 15.4712 25.6731 15.5155V15.6259L23.6392 22.5412L25.5569 21.96L25.1501 23.3547L23.2034 23.9068Z" fill="#345D9D"/>
</g>
<defs>
<clipPath id="clip0_47_226">
<rect width="24" height="24" fill="white" transform="translate(11 11.5)"/>
</clipPath>
</defs>
</svg>
