<svg width="46" height="47" viewBox="0 0 46 47" fill="none" xmlns="http://www.w3.org/2000/svg">
<circle cx="23" cy="23.5" r="23" fill="white"/>
<g clip-path="url(#clip0_47_290)">
<path fill-rule="evenodd" clip-rule="evenodd" d="M23 11.5C29.6279 11.5 35 16.8721 35 23.5C35 30.1279 29.6279 35.5 23 35.5C16.3721 35.5 11 30.1279 11 23.5C11 16.8721 16.3721 11.5 23 11.5Z" fill="#F0B90B"/>
<path d="M17.5952 23.5L17.6039 26.6731L20.3 28.2596V30.1173L16.026 27.6106V22.5721L17.5952 23.5ZM17.5952 20.3269V22.176L16.025 21.2471V19.3981L17.5952 18.4692L19.1731 19.3981L17.5952 20.3269ZM21.426 19.3981L22.9962 18.4692L24.5741 19.3981L22.9962 20.3269L21.426 19.3981Z" fill="white"/>
<path d="M18.7299 26.0154V24.1577L20.3001 25.0865V26.9356L18.7299 26.0154ZM21.426 28.925L22.9962 29.8539L24.5741 28.925V30.774L22.9962 31.7029L21.426 30.774V28.925ZM26.826 19.3981L28.3962 18.4692L29.9741 19.3981V21.2471L28.3962 22.176V20.3269L26.826 19.3981ZM28.3962 26.6731L28.4049 23.5L29.9751 22.5712V27.6096L25.701 30.1164V28.2587L28.3962 26.6731Z" fill="white"/>
<path d="M27.2701 26.0154L25.7 26.9356V25.0865L27.2701 24.1577V26.0154Z" fill="white"/>
<path d="M27.2702 20.9846L27.2789 22.8423L24.5751 24.4289V27.6096L23.0049 28.5298L21.4347 27.6096V24.4289L18.7308 22.8423V20.9846L20.3077 20.0558L22.9952 21.65L25.6991 20.0558L27.277 20.9846H27.2702ZM18.7299 17.8125L22.9962 15.2971L27.2702 17.8125L25.7001 18.7413L22.9962 17.1471L20.3001 18.7413L18.7299 17.8125Z" fill="white"/>
</g>
<defs>
<clipPath id="clip0_47_290">
<rect width="24" height="24" fill="white" transform="translate(11 11.5)"/>
</clipPath>
</defs>
</svg>
