<svg width="46" height="47" viewBox="0 0 46 47" fill="none" xmlns="http://www.w3.org/2000/svg">
<circle cx="23" cy="23.5" r="23" fill="white"/>
<g clip-path="url(#clip0_47_56)">
<path d="M23.3663 11.5L23.2053 12.0469V27.9161L23.3663 28.0767L30.7325 23.7225L23.3663 11.5Z" fill="#111111"/>
<path d="M23.3663 11.5L16 23.7225L23.3663 28.0767V20.3743V11.5Z" fill="#111111"/>
<path d="M23.3664 29.4714L23.2756 29.5821V35.2349L23.3664 35.4998L30.737 25.1195L23.3664 29.4714Z" fill="#111111"/>
<path d="M23.3663 35.4998V29.4714L16 25.1195L23.3663 35.4998Z" fill="#111111"/>
<path d="M23.3663 28.0767L30.7325 23.7225L23.3663 20.3743V28.0767Z" fill="#111111"/>
<path d="M16 23.7225L23.3663 28.0767V20.3743L16 23.7225Z" fill="#111111"/>
</g>
<defs>
<clipPath id="clip0_47_56">
<rect width="14.737" height="24" fill="white" transform="translate(16 11.5)"/>
</clipPath>
</defs>
</svg>
