<svg width="46" height="47" viewBox="0 0 46 47" fill="none" xmlns="http://www.w3.org/2000/svg">
<circle cx="23" cy="23.5" r="23" fill="white"/>
<g clip-path="url(#clip0_47_254)">
<path fill-rule="evenodd" clip-rule="evenodd" d="M14.0517 11.6178L9.02117 22.1844C9.00203 22.2237 8.99596 22.2681 9.00386 22.3111C9.01176 22.3541 9.0332 22.3935 9.06506 22.4234L22.6513 35.4423C22.6899 35.4793 22.7413 35.4999 22.7947 35.4999C22.8482 35.4999 22.8996 35.4793 22.9382 35.4423L36.5244 22.4242C36.5563 22.3943 36.5777 22.3549 36.5856 22.312C36.5935 22.269 36.5874 22.2246 36.5683 22.1853L31.5378 11.6187C31.5215 11.5832 31.4954 11.5531 31.4626 11.5321C31.4297 11.511 31.3915 11.4999 31.3525 11.5H14.2386C14.1994 11.4995 14.1609 11.5104 14.1277 11.5313C14.0946 11.5522 14.0682 11.5823 14.0517 11.6178Z" fill="#50AF95"/>
<path fill-rule="evenodd" clip-rule="evenodd" d="M24.5402 23.2696C24.4427 23.2769 23.9387 23.307 22.8146 23.307C21.9205 23.307 21.2857 23.2801 21.063 23.2696C17.6077 23.1176 15.0286 22.5161 15.0286 21.7959C15.0286 21.0758 17.6077 20.4751 21.063 20.3207V22.6705C21.2889 22.6868 21.9359 22.725 22.83 22.725C23.9029 22.725 24.4402 22.6803 24.5369 22.6713V20.3223C27.9849 20.4759 30.5583 21.0774 30.5583 21.7959C30.5583 22.5145 27.9857 23.1159 24.5369 23.2688L24.5402 23.2696ZM24.5402 20.0793V17.9765H29.3521V14.77H16.2511V17.9765H21.0622V20.0785C17.1517 20.2581 14.2109 21.0327 14.2109 21.9609C14.2109 22.8892 17.1517 23.663 21.0622 23.8434V30.5817H24.5394V23.841C28.4409 23.6613 31.3768 22.8875 31.3768 21.9601C31.3768 21.0327 28.4433 20.2589 24.5394 20.0785L24.5402 20.0793Z" fill="white"/>
</g>
<defs>
<clipPath id="clip0_47_254">
<rect width="27.5894" height="24" fill="white" transform="translate(9 11.5)"/>
</clipPath>
</defs>
</svg>
